<mxfile host="app.diagrams.net" agent="Mozilla/5.0 (Windows NT 10.0; Win64; x64) AppleWebKit/537.36 (KHTML, like Gecko) Chrome/139.0.0.0 Safari/537.36" version="28.0.9">
  <diagram name="FIFO Design" id="eZwYhmabo3LyxLv0LXHv">
    <mxGraphModel dx="1585" dy="860" grid="1" gridSize="10" guides="1" tooltips="1" connect="1" arrows="1" fold="1" page="1" pageScale="1" pageWidth="850" pageHeight="1100" math="0" shadow="0">
      <root>
        <mxCell id="0" />
        <mxCell id="1" parent="0" />
        <mxCell id="vhg_nTv88DcxzK0JH_yl-33" style="edgeStyle=orthogonalEdgeStyle;rounded=0;orthogonalLoop=1;jettySize=auto;html=1;exitX=1;exitY=0.75;exitDx=0;exitDy=0;entryX=0;entryY=0.5;entryDx=0;entryDy=0;strokeColor=#0000CC;" edge="1" parent="1" source="vhg_nTv88DcxzK0JH_yl-30" target="vhg_nTv88DcxzK0JH_yl-12">
          <mxGeometry relative="1" as="geometry" />
        </mxCell>
        <mxCell id="vhg_nTv88DcxzK0JH_yl-34" style="edgeStyle=orthogonalEdgeStyle;rounded=0;orthogonalLoop=1;jettySize=auto;html=1;exitX=1;exitY=0.5;exitDx=0;exitDy=0;entryX=0;entryY=0.5;entryDx=0;entryDy=0;strokeColor=#0000CC;" edge="1" parent="1" source="vhg_nTv88DcxzK0JH_yl-30" target="vhg_nTv88DcxzK0JH_yl-11">
          <mxGeometry relative="1" as="geometry" />
        </mxCell>
        <mxCell id="vhg_nTv88DcxzK0JH_yl-30" value="&#xa;&lt;span style=&quot;color: rgb(0, 0, 0); font-family: Helvetica; font-size: 12px; font-style: normal; font-variant-ligatures: normal; font-variant-caps: normal; font-weight: 400; letter-spacing: normal; orphans: 2; text-align: center; text-indent: 0px; text-transform: none; widows: 2; word-spacing: 0px; -webkit-text-stroke-width: 0px; white-space: normal; background-color: rgb(236, 236, 236); text-decoration-thickness: initial; text-decoration-style: initial; text-decoration-color: initial; display: inline !important; float: none;&quot;&gt;0x00&lt;/span&gt;&#xa;&#xa;" style="rounded=0;whiteSpace=wrap;html=1;fillColor=#f8cecc;strokeColor=#b85450;" vertex="1" parent="1">
          <mxGeometry x="316.5" y="79" width="200" height="311" as="geometry" />
        </mxCell>
        <mxCell id="vhg_nTv88DcxzK0JH_yl-2" value="&lt;font style=&quot;font-size: 18px;&quot;&gt;&lt;b&gt;Clock&lt;/b&gt;&lt;/font&gt;" style="shape=rectangle;rounded=1;whiteSpace=wrap;html=1;fillColor=#dae8fc;strokeColor=#6c8ebf;" vertex="1" parent="1">
          <mxGeometry x="95.5" y="109" width="160" height="40" as="geometry" />
        </mxCell>
        <mxCell id="vhg_nTv88DcxzK0JH_yl-3" value="&lt;font style=&quot;font-size: 18px;&quot;&gt;&lt;b&gt;Reset&lt;/b&gt;&lt;/font&gt;" style="shape=rectangle;rounded=1;whiteSpace=wrap;html=1;fillColor=#dae8fc;strokeColor=#6c8ebf;" vertex="1" parent="1">
          <mxGeometry x="95.5" y="152" width="160" height="40" as="geometry" />
        </mxCell>
        <mxCell id="vhg_nTv88DcxzK0JH_yl-4" value="&lt;font style=&quot;font-size: 18px;&quot;&gt;&lt;b&gt;Push&amp;nbsp;&lt;/b&gt;&lt;/font&gt;" style="shape=rectangle;rounded=1;whiteSpace=wrap;html=1;fillColor=#dae8fc;strokeColor=#6c8ebf;" vertex="1" parent="1">
          <mxGeometry x="95.5" y="195" width="160" height="40" as="geometry" />
        </mxCell>
        <mxCell id="vhg_nTv88DcxzK0JH_yl-32" style="edgeStyle=orthogonalEdgeStyle;rounded=0;orthogonalLoop=1;jettySize=auto;html=1;exitX=1;exitY=0.5;exitDx=0;exitDy=0;strokeColor=#0000CC;" edge="1" parent="1" source="vhg_nTv88DcxzK0JH_yl-5">
          <mxGeometry relative="1" as="geometry">
            <mxPoint x="315.5" y="258.13953488372096" as="targetPoint" />
          </mxGeometry>
        </mxCell>
        <mxCell id="vhg_nTv88DcxzK0JH_yl-5" value="&lt;font style=&quot;font-size: 18px;&quot;&gt;&lt;b&gt;Pop&amp;nbsp;&lt;/b&gt;&lt;/font&gt;" style="shape=rectangle;rounded=1;whiteSpace=wrap;html=1;fillColor=#dae8fc;strokeColor=#6c8ebf;" vertex="1" parent="1">
          <mxGeometry x="95.5" y="238" width="160" height="40" as="geometry" />
        </mxCell>
        <mxCell id="vhg_nTv88DcxzK0JH_yl-6" value="&lt;font style=&quot;font-size: 18px;&quot;&gt;&lt;b&gt;Write - Data Input&lt;/b&gt;&lt;/font&gt;" style="shape=rectangle;rounded=1;whiteSpace=wrap;html=1;fillColor=#dae8fc;strokeColor=#6c8ebf;" vertex="1" parent="1">
          <mxGeometry x="95.5" y="282" width="160" height="68" as="geometry" />
        </mxCell>
        <mxCell id="vhg_nTv88DcxzK0JH_yl-10" value="&lt;font style=&quot;font-size: 18px;&quot;&gt;&lt;b&gt;Read - Data Output&lt;/b&gt;&lt;/font&gt;" style="shape=rectangle;rounded=1;whiteSpace=wrap;html=1;fillColor=#fff2cc;strokeColor=#d6b656;" vertex="1" parent="1">
          <mxGeometry x="575.5" y="117" width="144.5" height="80" as="geometry" />
        </mxCell>
        <mxCell id="vhg_nTv88DcxzK0JH_yl-11" value="&lt;font style=&quot;font-size: 18px;&quot;&gt;&lt;b&gt;empty Flag&lt;/b&gt;&lt;/font&gt;" style="shape=hexagon;whiteSpace=wrap;html=1;fillColor=#fff2cc;strokeColor=#d6b656;" vertex="1" parent="1">
          <mxGeometry x="585.5" y="214.5" width="140" height="40" as="geometry" />
        </mxCell>
        <mxCell id="vhg_nTv88DcxzK0JH_yl-12" value="&lt;b&gt;&lt;font style=&quot;font-size: 18px;&quot;&gt;full Flag&lt;/font&gt;&lt;/b&gt;" style="shape=hexagon;whiteSpace=wrap;html=1;fillColor=#fff2cc;strokeColor=#d6b656;" vertex="1" parent="1">
          <mxGeometry x="585.5" y="292" width="140" height="40" as="geometry" />
        </mxCell>
        <mxCell id="vhg_nTv88DcxzK0JH_yl-14" value="" style="shape=flexArrow;endArrow=classic;html=1;rounded=0;entryX=0.006;entryY=0.809;entryDx=0;entryDy=0;entryPerimeter=0;fillColor=#1ba1e2;strokeColor=#006EAF;" edge="1" parent="1">
          <mxGeometry width="50" height="50" relative="1" as="geometry">
            <mxPoint x="255.5" y="320" as="sourcePoint" />
            <mxPoint x="316.70000000000005" y="321.374" as="targetPoint" />
          </mxGeometry>
        </mxCell>
        <mxCell id="vhg_nTv88DcxzK0JH_yl-16" style="edgeStyle=orthogonalEdgeStyle;rounded=0;orthogonalLoop=1;jettySize=auto;html=1;exitX=1;exitY=0.5;exitDx=0;exitDy=0;entryX=0;entryY=0.437;entryDx=0;entryDy=0;entryPerimeter=0;strokeColor=#0000CC;" edge="1" parent="1" source="vhg_nTv88DcxzK0JH_yl-4">
          <mxGeometry relative="1" as="geometry">
            <mxPoint x="315.5000000000002" y="214.98199999999997" as="targetPoint" />
          </mxGeometry>
        </mxCell>
        <mxCell id="vhg_nTv88DcxzK0JH_yl-21" style="edgeStyle=orthogonalEdgeStyle;rounded=0;orthogonalLoop=1;jettySize=auto;html=1;exitX=1;exitY=0.5;exitDx=0;exitDy=0;strokeColor=#0000CC;" edge="1" parent="1">
          <mxGeometry relative="1" as="geometry">
            <mxPoint x="255.49999999999977" y="171.24" as="sourcePoint" />
            <mxPoint x="315.5" y="172.24" as="targetPoint" />
          </mxGeometry>
        </mxCell>
        <mxCell id="vhg_nTv88DcxzK0JH_yl-22" style="edgeStyle=orthogonalEdgeStyle;rounded=0;orthogonalLoop=1;jettySize=auto;html=1;exitX=1;exitY=0.5;exitDx=0;exitDy=0;strokeColor=#0000CC;" edge="1" parent="1">
          <mxGeometry relative="1" as="geometry">
            <mxPoint x="255.5000000000001" y="129.15" as="sourcePoint" />
            <mxPoint x="315.5" y="129" as="targetPoint" />
          </mxGeometry>
        </mxCell>
        <mxCell id="vhg_nTv88DcxzK0JH_yl-23" value="" style="rounded=0;whiteSpace=wrap;html=1;fillColor=#f5f5f5;strokeColor=#666666;fontColor=#333333;" vertex="1" parent="1">
          <mxGeometry x="385.5" y="98" width="125" height="250" as="geometry" />
        </mxCell>
        <mxCell id="vhg_nTv88DcxzK0JH_yl-24" value="" style="triangle;whiteSpace=wrap;html=1;" vertex="1" parent="1">
          <mxGeometry x="317.5" y="126" width="10" height="20" as="geometry" />
        </mxCell>
        <mxCell id="vhg_nTv88DcxzK0JH_yl-25" value="" style="rounded=0;whiteSpace=wrap;html=1;fillColor=#f5f5f5;fontColor=#333333;strokeColor=#666666;" vertex="1" parent="1">
          <mxGeometry x="385.5" y="308" width="125" height="42" as="geometry" />
        </mxCell>
        <mxCell id="vhg_nTv88DcxzK0JH_yl-28" value="" style="rounded=0;whiteSpace=wrap;html=1;fillColor=#f5f5f5;fontColor=#333333;strokeColor=#666666;" vertex="1" parent="1">
          <mxGeometry x="385.5" y="182" width="125" height="42" as="geometry" />
        </mxCell>
        <mxCell id="vhg_nTv88DcxzK0JH_yl-29" value="" style="rounded=0;whiteSpace=wrap;html=1;strokeColor=#666666;fillColor=#f5f5f5;fontColor=#333333;" vertex="1" parent="1">
          <mxGeometry x="385.5" y="140" width="125" height="42" as="geometry" />
        </mxCell>
        <mxCell id="vhg_nTv88DcxzK0JH_yl-31" value="&lt;font style=&quot;font-size: 16px;&quot;&gt;&lt;b&gt;FIFO&lt;/b&gt;&lt;/font&gt;" style="text;html=1;align=center;verticalAlign=middle;whiteSpace=wrap;rounded=0;" vertex="1" parent="1">
          <mxGeometry x="410" y="348" width="60" height="30" as="geometry" />
        </mxCell>
        <mxCell id="vhg_nTv88DcxzK0JH_yl-36" value="" style="endArrow=none;dashed=1;html=1;dashPattern=1 3;strokeWidth=2;rounded=0;" edge="1" parent="1">
          <mxGeometry width="50" height="50" relative="1" as="geometry">
            <mxPoint x="447.37" y="301" as="sourcePoint" />
            <mxPoint x="447.37" y="231" as="targetPoint" />
          </mxGeometry>
        </mxCell>
        <mxCell id="vhg_nTv88DcxzK0JH_yl-38" value="&lt;blockquote style=&quot;margin: 0 0 0 40px; border: none; padding: 0px;&quot;&gt;&lt;div style=&quot;&quot;&gt;&lt;b style=&quot;color: light-dark(rgb(39, 111, 255), rgb(88, 150, 255)); background-color: transparent;&quot;&gt;&lt;font style=&quot;font-size: 20px;&quot;&gt;1. Width = Size of word that can be stored at one location.&lt;/font&gt;&lt;/b&gt;&lt;/div&gt;&lt;div style=&quot;&quot;&gt;&lt;font style=&quot;color: rgb(39, 111, 255); font-size: 20px;&quot;&gt;&lt;b&gt;2. Depth = Total Number of locations in FIFO.&lt;/b&gt;&lt;/font&gt;&lt;/div&gt;&lt;div style=&quot;&quot;&gt;&lt;font style=&quot;color: rgb(39, 111, 255); font-size: 20px;&quot;&gt;&lt;b&gt;3. Example scenario :&amp;nbsp;&lt;/b&gt;&lt;/font&gt;&lt;/div&gt;&lt;/blockquote&gt;&lt;blockquote style=&quot;margin: 0 0 0 40px; border: none; padding: 0px;&quot;&gt;&lt;div style=&quot;&quot;&gt;&lt;font style=&quot;color: rgb(39, 111, 255); font-size: 20px;&quot;&gt;&lt;b style=&quot;background-color: transparent;&quot;&gt;Lets say we have a word size of one byte. This means Width of one location will be 8 bits. Suppose&lt;/b&gt;&lt;span style=&quot;background-color: transparent;&quot;&gt;&lt;b&gt;&amp;nbsp;we are taking DEPTH = 8, this means we&#39;ll have 8 memory blocks with an 8-bit&lt;/b&gt;&lt;/span&gt;&lt;b style=&quot;background-color: transparent;&quot;&gt;&amp;nbsp;storage capacity.&amp;nbsp;&lt;/b&gt;&lt;/font&gt;&lt;/div&gt;&lt;/blockquote&gt;&lt;blockquote style=&quot;margin: 0 0 0 40px; border: none; padding: 0px;&quot;&gt;&lt;div style=&quot;&quot;&gt;&lt;b style=&quot;background-color: transparent;&quot;&gt;&lt;font style=&quot;color: rgb(39, 111, 255); font-size: 20px;&quot;&gt;4. Address bits:&lt;/font&gt;&lt;/b&gt;&lt;/div&gt;&lt;blockquote style=&quot;margin: 0 0 0 40px; border: none; padding: 0px;&quot;&gt;&lt;div style=&quot;&quot;&gt;&lt;b style=&quot;background-color: transparent;&quot;&gt;&lt;font style=&quot;color: rgb(39, 111, 255); font-size: 20px;&quot;&gt;In order to have 8 (0-7) locations, we&#39;ll require (2&lt;sup style=&quot;&quot;&gt;3&lt;/sup&gt;&amp;nbsp;) 3 address bits. (000 = 0 and 111 = 7)&lt;/font&gt;&lt;/b&gt;&lt;/div&gt;&lt;/blockquote&gt;&lt;/blockquote&gt;" style="shape=note;size=20;whiteSpace=wrap;html=1;align=left;strokeColor=#6c8ebf;fillColor=#dae8fc;verticalAlign=middle;" vertex="1" parent="1">
          <mxGeometry x="86.5" y="410" width="660" height="270" as="geometry" />
        </mxCell>
        <mxCell id="vhg_nTv88DcxzK0JH_yl-39" value="" style="shape=flexArrow;endArrow=classic;html=1;rounded=0;entryX=0.006;entryY=0.809;entryDx=0;entryDy=0;entryPerimeter=0;fillColor=#1ba1e2;strokeColor=#006EAF;" edge="1" parent="1">
          <mxGeometry width="50" height="50" relative="1" as="geometry">
            <mxPoint x="516.5" y="152" as="sourcePoint" />
            <mxPoint x="577.7" y="153.37400000000002" as="targetPoint" />
          </mxGeometry>
        </mxCell>
        <mxCell id="vhg_nTv88DcxzK0JH_yl-40" value="&lt;font style=&quot;font-size: 19px;&quot;&gt;0&lt;/font&gt;" style="text;html=1;align=center;verticalAlign=middle;whiteSpace=wrap;rounded=0;strokeWidth=5;" vertex="1" parent="1">
          <mxGeometry x="356.5" y="320" width="30" height="30" as="geometry" />
        </mxCell>
        <mxCell id="vhg_nTv88DcxzK0JH_yl-41" value="&lt;font style=&quot;font-size: 13px;&quot;&gt;DEPTH - 1&lt;/font&gt;" style="text;html=1;align=center;verticalAlign=middle;whiteSpace=wrap;rounded=0;" vertex="1" parent="1">
          <mxGeometry x="317.5" y="109" width="69" height="17" as="geometry" />
        </mxCell>
        <mxCell id="vhg_nTv88DcxzK0JH_yl-42" value="&lt;h1 style=&quot;margin-top: 0px;&quot;&gt;&lt;font face=&quot;Times New Roman&quot; style=&quot;font-size: 35px; color: rgb(39, 111, 255);&quot;&gt;&lt;i style=&quot;&quot;&gt;FIFO - FIRST WORD FALL THROUGH&lt;/i&gt;&lt;/font&gt;&lt;/h1&gt;" style="text;html=1;whiteSpace=wrap;overflow=hidden;rounded=0;" vertex="1" parent="1">
          <mxGeometry x="106" y="20" width="639" height="40" as="geometry" />
        </mxCell>
      </root>
    </mxGraphModel>
  </diagram>
</mxfile>
